<svg width="149" height="30" viewBox="0 0 149 30" fill="none" xmlns="http://www.w3.org/2000/svg">
<path d="M1.59988 23C1.29647 23 1.03099 22.8957 0.803437 22.6871C0.594844 22.4785 0.490548 22.213 0.490548 21.8907V1.89422C0.490548 1.59081 0.594844 1.33481 0.803437 1.12622C1.03099 0.898664 1.29647 0.784887 1.59988 0.784887C1.90329 0.784887 2.15929 0.898664 2.36788 1.12622C2.59544 1.33481 2.70921 1.59081 2.70921 1.89422V20.8951H13.831C14.1344 20.8951 14.3904 20.9994 14.599 21.208C14.8265 21.3976 14.9403 21.6441 14.9403 21.9476C14.9403 22.251 14.8265 22.507 14.599 22.7156C14.3904 22.9052 14.1344 23 13.831 23H1.59988ZM24.8621 23.1422C23.3451 23.1422 21.9892 22.8009 20.7945 22.1182C19.5999 21.4356 18.6612 20.4969 17.9785 19.3022C17.2959 18.1076 16.9545 16.7517 16.9545 15.2347C16.9545 13.6987 17.2959 12.3333 17.9785 11.1387C18.6612 9.944 19.5999 9.00533 20.7945 8.32266C21.9892 7.64 23.3451 7.29866 24.8621 7.29866C26.3791 7.29866 27.7255 7.64 28.9012 8.32266C30.0959 9.00533 31.0345 9.944 31.7172 11.1387C32.3999 12.3333 32.7507 13.6987 32.7697 15.2347C32.7697 16.7517 32.4188 18.1076 31.7172 19.3022C31.0345 20.4969 30.0959 21.4356 28.9012 22.1182C27.7255 22.8009 26.3791 23.1422 24.8621 23.1422ZM24.8621 21.1511C25.962 21.1511 26.948 20.8951 27.8203 20.3831C28.6926 19.8711 29.3753 19.1695 29.8683 18.2782C30.3614 17.387 30.6079 16.3724 30.6079 15.2347C30.6079 14.0969 30.3614 13.0824 29.8683 12.1911C29.3753 11.2809 28.6926 10.5698 27.8203 10.0578C26.948 9.54578 25.962 9.28978 24.8621 9.28978C23.7623 9.28978 22.7762 9.54578 21.9039 10.0578C21.0316 10.5698 20.3394 11.2809 19.8274 12.1911C19.3344 13.0824 19.0879 14.0969 19.0879 15.2347C19.0879 16.3724 19.3344 17.387 19.8274 18.2782C20.3394 19.1695 21.0316 19.8711 21.9039 20.3831C22.7762 20.8951 23.7623 21.1511 24.8621 21.1511ZM43.4579 23.1422C41.9598 23.1422 40.6324 22.8104 39.4757 22.1467C38.3189 21.464 37.4087 20.5253 36.745 19.3307C36.1003 18.136 35.7779 16.7707 35.7779 15.2347C35.7779 13.6797 36.1192 12.3049 36.8019 11.1102C37.4846 9.91555 38.4232 8.98637 39.6179 8.32266C40.8126 7.64 42.1684 7.29866 43.6854 7.29866C45.2214 7.29866 46.5773 7.64 47.753 8.32266C48.9477 8.98637 49.8769 9.91555 50.5406 11.1102C51.2232 12.3049 51.574 13.6797 51.593 15.2347V21.0373C51.593 22.5733 51.2517 23.9481 50.569 25.1618C49.8863 26.3944 48.9571 27.3615 47.7814 28.0631C46.6057 28.7837 45.2594 29.144 43.7423 29.144C42.2443 29.144 40.9263 28.8596 39.7886 28.2907C38.6508 27.7407 37.7121 26.9822 36.9726 26.0151C36.764 25.7876 36.6691 25.541 36.6881 25.2756C36.726 25.0101 36.8683 24.792 37.1148 24.6213C37.3613 24.4507 37.6363 24.3938 37.9397 24.4507C38.2431 24.5076 38.4801 24.6498 38.6508 24.8773C39.2007 25.56 39.9023 26.1099 40.7557 26.5271C41.628 26.9443 42.633 27.1529 43.7708 27.1529C44.8327 27.1529 45.7903 26.8969 46.6437 26.3849C47.497 25.8729 48.1702 25.1523 48.6632 24.2231C49.1752 23.2939 49.4312 22.2036 49.4312 20.952V19.6436C48.8623 20.7244 48.0564 21.5778 47.0134 22.2036C45.9894 22.8293 44.8043 23.1422 43.4579 23.1422ZM43.6854 21.1511C44.8043 21.1511 45.7903 20.9046 46.6437 20.4116C47.516 19.8996 48.1986 19.1979 48.6917 18.3067C49.1847 17.4154 49.4312 16.3914 49.4312 15.2347C49.4312 14.0779 49.1847 13.0539 48.6917 12.1627C48.1986 11.2524 47.516 10.5508 46.6437 10.0578C45.7903 9.54578 44.8043 9.28978 43.6854 9.28978C42.5666 9.28978 41.5711 9.54578 40.6988 10.0578C39.8265 10.5508 39.1438 11.2524 38.6508 12.1627C38.1577 13.0539 37.9112 14.0779 37.9112 15.2347C37.9112 16.3914 38.1577 17.4154 38.6508 18.3067C39.1438 19.1979 39.8265 19.8996 40.6988 20.4116C41.5711 20.9046 42.5666 21.1511 43.6854 21.1511ZM62.5088 23.1422C60.9917 23.1422 59.6359 22.8009 58.4412 22.1182C57.2465 21.4356 56.3079 20.4969 55.6252 19.3022C54.9425 18.1076 54.6012 16.7517 54.6012 15.2347C54.6012 13.6987 54.9425 12.3333 55.6252 11.1387C56.3079 9.944 57.2465 9.00533 58.4412 8.32266C59.6359 7.64 60.9917 7.29866 62.5088 7.29866C64.0258 7.29866 65.3722 7.64 66.5479 8.32266C67.7426 9.00533 68.6812 9.944 69.3639 11.1387C70.0466 12.3333 70.3974 13.6987 70.4163 15.2347C70.4163 16.7517 70.0655 18.1076 69.3639 19.3022C68.6812 20.4969 67.7426 21.4356 66.5479 22.1182C65.3722 22.8009 64.0258 23.1422 62.5088 23.1422ZM62.5088 21.1511C63.6086 21.1511 64.5947 20.8951 65.467 20.3831C66.3393 19.8711 67.022 19.1695 67.515 18.2782C68.008 17.387 68.2545 16.3724 68.2545 15.2347C68.2545 14.0969 68.008 13.0824 67.515 12.1911C67.022 11.2809 66.3393 10.5698 65.467 10.0578C64.5947 9.54578 63.6086 9.28978 62.5088 9.28978C61.4089 9.28978 60.4228 9.54578 59.5505 10.0578C58.6783 10.5698 57.9861 11.2809 57.4741 12.1911C56.9811 13.0824 56.7345 14.0969 56.7345 15.2347C56.7345 16.3724 56.9811 17.387 57.4741 18.2782C57.9861 19.1695 58.6783 19.8711 59.5505 20.3831C60.4228 20.8951 61.4089 21.1511 62.5088 21.1511ZM92.709 23.2844C91.0592 23.2844 89.5422 23 88.1579 22.4311C86.7736 21.8622 85.5694 21.0658 84.5454 20.0418C83.5404 19.0178 82.7534 17.8136 82.1846 16.4293C81.6346 15.045 81.3597 13.528 81.3597 11.8782C81.3597 10.2474 81.6346 8.73985 82.1846 7.35555C82.7534 5.97126 83.5404 4.76711 84.5454 3.74311C85.5694 2.71911 86.7736 1.92266 88.1579 1.35378C89.5422 0.784887 91.0592 0.500443 92.709 0.500443C94.3398 0.500443 95.8474 0.784887 97.2317 1.35378C98.616 1.92266 99.8201 2.71911 100.844 3.74311C101.868 4.76711 102.655 5.97126 103.205 7.35555C103.774 8.73985 104.058 10.2474 104.058 11.8782C104.058 13.528 103.774 15.045 103.205 16.4293C102.655 17.8136 101.868 19.0178 100.844 20.0418C99.8201 21.0658 98.616 21.8622 97.2317 22.4311C95.8474 23 94.3398 23.2844 92.709 23.2844ZM92.709 21.1796C94.0174 21.1796 95.2311 20.952 96.3499 20.4969C97.4687 20.0228 98.4358 19.3686 99.2512 18.5342C100.086 17.6809 100.73 16.6948 101.185 15.576C101.641 14.4382 101.868 13.2056 101.868 11.8782C101.868 10.5698 101.641 9.35615 101.185 8.23733C100.73 7.09955 100.086 6.11348 99.2512 5.27911C98.4358 4.42578 97.4687 3.77155 96.3499 3.31644C95.2311 2.84237 94.0174 2.60533 92.709 2.60533C91.3816 2.60533 90.1585 2.84237 89.0397 3.31644C87.9208 3.77155 86.9443 4.42578 86.1099 5.27911C85.2945 6.11348 84.6592 7.09955 84.2041 8.23733C83.749 9.35615 83.5214 10.5698 83.5214 11.8782C83.5214 13.2056 83.749 14.4382 84.2041 15.576C84.6592 16.6948 85.2945 17.6809 86.1099 18.5342C86.9443 19.3686 87.9208 20.0228 89.0397 20.4969C90.1585 20.952 91.3816 21.1796 92.709 21.1796ZM109.318 23C108.995 23 108.73 22.8957 108.521 22.6871C108.313 22.4785 108.208 22.213 108.208 21.8907V1.89422C108.208 1.57185 108.313 1.30637 108.521 1.09777C108.73 0.889183 108.995 0.784887 109.318 0.784887C109.659 0.784887 109.943 0.917627 110.171 1.18311L123.767 19.0462V1.89422C123.767 1.57185 123.872 1.30637 124.08 1.09777C124.289 0.889183 124.554 0.784887 124.877 0.784887C125.18 0.784887 125.436 0.889183 125.645 1.09777C125.872 1.30637 125.986 1.57185 125.986 1.89422V21.8907C125.986 22.213 125.872 22.4785 125.645 22.6871C125.436 22.8957 125.18 23 124.877 23C124.516 23 124.242 22.8767 124.052 22.6302L110.427 4.76711V21.8907C110.427 22.213 110.313 22.4785 110.086 22.6871C109.877 22.8957 109.621 23 109.318 23ZM141.238 23.2844C139.702 23.2844 138.261 22.9905 136.914 22.4027C135.587 21.8148 134.411 20.9994 133.387 19.9564C132.382 18.8945 131.595 17.6809 131.026 16.3156C130.457 14.9313 130.173 13.4521 130.173 11.8782C130.173 10.3233 130.448 8.86311 130.998 7.49778C131.567 6.11348 132.354 4.89985 133.359 3.85689C134.383 2.81392 135.558 1.99852 136.886 1.41066C138.232 0.803849 139.683 0.500443 141.238 0.500443C142.603 0.500443 143.845 0.699553 144.964 1.09777C146.083 1.496 147.164 2.13126 148.207 3.00355C148.453 3.19318 148.558 3.4397 148.52 3.74311C148.482 4.02755 148.34 4.22666 148.093 4.34044C148.036 4.568 147.856 4.7197 147.553 4.79555C147.268 4.85244 146.984 4.75763 146.699 4.51111C145.96 3.86637 145.154 3.39229 144.281 3.08889C143.409 2.76652 142.395 2.60533 141.238 2.60533C140.005 2.60533 138.849 2.85185 137.768 3.34489C136.706 3.83792 135.767 4.51111 134.952 5.36444C134.136 6.21778 133.492 7.20385 133.017 8.32266C132.562 9.44148 132.335 10.6267 132.335 11.8782C132.335 13.1677 132.562 14.3719 133.017 15.4907C133.492 16.6095 134.136 17.5956 134.952 18.4489C135.767 19.3022 136.706 19.9754 137.768 20.4684C138.849 20.9425 140.005 21.1796 141.238 21.1796C143.096 21.1796 144.803 20.6391 146.358 19.5582V13.8693H141.921C141.598 13.8693 141.333 13.7745 141.124 13.5849C140.916 13.3953 140.811 13.1582 140.811 12.8738C140.811 12.5893 140.916 12.3618 141.124 12.1911C141.333 12.0015 141.598 11.9067 141.921 11.9067H147.41C147.733 11.9067 147.998 12.011 148.207 12.2196C148.415 12.4092 148.52 12.6652 148.52 12.9876V20.0418C148.52 20.1935 148.501 20.3357 148.463 20.4684C148.425 20.5822 148.34 20.7055 148.207 20.8382C147.24 21.7295 146.159 22.3647 144.964 22.744C143.769 23.1043 142.527 23.2844 141.238 23.2844Z" fill="black"/>
</svg>
